<svg xmlns="http://www.w3.org/2000/svg" viewBox="0 0 180 180" fill="none">
  <g transform="rotate(42 90 90)">
    <rect x="14" y="56" width="152" height="68" rx="28" fill="#E6AE68"/>
    <rect x="63" y="48" width="54" height="84" rx="15" fill="#F3C47E"/>
    <circle cx="78" cy="69" r="3.7" fill="#B78249"/><circle cx="102" cy="69" r="3.7" fill="#B78249"/>
    <circle cx="78" cy="90" r="3.7" fill="#B78249"/><circle cx="102" cy="90" r="3.7" fill="#B78249"/>
    <circle cx="78" cy="111" r="3.7" fill="#B78249"/><circle cx="102" cy="111" r="3.7" fill="#B78249"/>
  </g>
  <g transform="rotate(-42 90 90)">
    <rect x="14" y="56" width="152" height="68" rx="28" fill="#E6AE68"/>
    <rect x="63" y="48" width="54" height="84" rx="15" fill="#F3C47E"/>
    <circle cx="78" cy="69" r="3.7" fill="#B78249"/><circle cx="102" cy="69" r="3.7" fill="#B78249"/>
    <circle cx="78" cy="90" r="3.7" fill="#B78249"/><circle cx="102" cy="90" r="3.7" fill="#B78249"/>
    <circle cx="78" cy="111" r="3.7" fill="#B78249"/><circle cx="102" cy="111" r="3.7" fill="#B78249"/>
  </g>
</svg>
