<svg xmlns="http://www.w3.org/2000/svg" viewBox="0 0 320 320" fill="none">
  <path fill="#7562B8" fill-opacity=".46" d="M279 93c24 40 20 103-10 149-29 44-84 70-136 60-53-10-101-56-108-107-7-52 27-108 76-139 50-31 129-4 178 37Z"/>
  <path fill="#503F91" fill-opacity=".58" d="M251 111c20 34 11 86-19 119-30 32-81 47-121 27-39-20-66-75-48-114 18-40 69-64 113-61 32 2 59 8 75 29Z"/>
  <path fill="#9B82D0" fill-opacity=".42" d="M232 132c15 25 3 65-24 85-27 19-72 21-97-3-25-24-29-67-7-91 23-25 78-34 103-14 11 8 19 14 25 23Z"/>
</svg>
