<svg width="203" height="204" viewBox="0 0 203 204" fill="none" xmlns="http://www.w3.org/2000/svg">
<path d="M32.3506 111.959C65.0443 111.959 91.5477 138.463 91.5479 171.157V190.007C91.5479 197.463 85.5037 203.507 78.0479 203.507C70.5922 203.507 64.5479 197.463 64.5479 190.007V171.157C64.5477 153.375 50.1326 138.959 32.3506 138.959H13.5C6.04425 138.959 0 132.915 0 125.459C0.000320568 118.003 6.04445 111.959 13.5 111.959H32.3506ZM188.865 111.959C196.321 111.959 202.365 118.004 202.365 125.459C202.365 132.915 196.321 138.959 188.865 138.959H170.015C152.233 138.959 137.817 153.375 137.816 171.157V190.007C137.816 197.463 131.772 203.507 124.316 203.507C116.861 203.506 110.816 197.462 110.816 190.007V171.157C110.817 138.463 137.321 111.959 170.015 111.959H188.865ZM78.0479 0C85.5036 0 91.5477 6.04428 91.5479 13.5V32.3506C91.5477 65.0443 65.0443 91.5477 32.3506 91.5479H13.5C6.04425 91.5477 0 85.5036 0 78.0479C0.000209247 70.5923 6.04438 64.548 13.5 64.5479H32.3506C50.1326 64.5477 64.5477 50.1326 64.5479 32.3506V13.5C64.548 6.04439 70.5922 0.00017214 78.0479 0ZM124.316 0C131.772 0 137.816 6.04428 137.816 13.5V32.3506C137.817 50.1327 152.233 64.5477 170.015 64.5479H188.865C196.321 64.5481 202.365 70.5923 202.365 78.0479C202.365 85.5036 196.321 91.5476 188.865 91.5479H170.015C137.321 91.5477 110.817 65.0444 110.816 32.3506V13.5C110.817 6.0445 116.861 0.00035767 124.316 0Z" fill="#BF1931"/>
</svg>
