<svg preserveAspectRatio="none" width="100%" height="100%" overflow="visible" style="display: block;" viewBox="0 0 182 182" fill="none" xmlns="http://www.w3.org/2000/svg">
<path id="Vector" d="M53.8287 94.3167C53.4223 74.5857 54.5399 54.8547 54.4383 35.1237C54.4383 27.0081 56.7242 23.914 64.6998 22.1895C82.1241 18.3346 99.6499 14.7333 117.074 10.8784C133.787 7.22634 150.5 3.82795 167.315 0.632438C167.417 0.632438 167.518 0.581713 167.62 0.530991C177.729 -1.29502 182.149 1.34255 181.996 12.2986C181.488 49.5288 181.437 86.8098 181.082 124.04C180.929 142.757 169.703 156.35 151.567 159.546C139.832 161.575 129.419 158.481 121.189 149.503C114.077 141.691 113.366 130.888 119.716 122.468C127.996 111.461 139.172 106.338 153.091 107.2C157.663 107.454 162.032 108.164 166.147 110.446C168.991 112.019 168.382 109.533 168.382 108.215C168.28 94.0124 168.534 79.8101 167.975 65.5571C167.721 58.9125 167.874 58.8617 161.473 60.282C131.501 66.7744 101.58 73.3684 71.6085 79.8101C68.459 80.4695 67.2398 81.6869 67.2906 85.0345C67.443 105.121 67.0874 125.156 67.443 145.242C67.697 158.886 61.7026 168.727 50.4759 175.675C38.3855 183.182 25.838 184.4 13.1381 177.197C-4.99735 166.901 -2.40657 148.488 9.12495 138.293C19.0817 129.518 30.918 125.612 44.3799 127.946C46.4627 128.301 48.3931 129.062 50.3235 130.025C52.6603 131.175 53.8287 130.499 53.8287 127.996C53.8287 118.055 53.8287 108.164 53.8287 98.2224C53.8287 96.9036 53.8287 95.5848 53.8287 94.266V94.3167ZM168.382 36.341C168.382 35.3266 168.28 34.3628 168.382 33.3484C168.585 31.0152 167.62 30.5587 165.435 31.0659C135.514 37.7612 105.594 44.3552 75.6725 50.9998C68.1542 52.6736 68.205 52.7244 68.5606 60.4342C68.6622 62.7167 69.4242 63.1732 71.6593 62.7167C83.2925 60.1298 94.9256 57.6444 106.559 55.159C126.066 51.0505 145.624 46.942 165.131 42.9349C167.569 42.4277 168.585 41.3625 168.331 38.9279C168.229 38.0656 168.331 37.1526 168.331 36.2903L168.382 36.341Z" fill="var(--fill-0, #CB59FF)"/>
</svg>
