<svg preserveAspectRatio="none" width="100%" height="100%" overflow="visible" style="display: block;" viewBox="0 0 73 168" fill="none" xmlns="http://www.w3.org/2000/svg">
<path id="Vector" d="M72.7451 62.9514C72.7451 80.4097 72.7961 97.9185 72.7451 115.377C72.7451 122.714 73.051 130.204 71.8786 137.389C68.8202 156.517 48.4308 170.585 28.857 167.6C17.9996 165.93 9.0283 161.122 3.4722 151.508C-3.66409 139.262 0.566716 123.878 12.8003 115.933C25.7476 107.483 39.2556 105.914 53.3242 112.897C55.8219 114.112 55.5671 112.593 55.5671 111.075C56.1278 78.5373 56.0258 45.9993 56.0768 13.4612C56.0768 12.1455 56.0768 10.8298 56.0768 9.51413C56.1278 2.78386 58.9823 -0.0499384 65.5579 0.000665154C70.7062 0.000665154 73 2.32843 73 7.54059C73 24.2398 73 40.9389 73 57.6887C73 59.4598 73 61.2309 73 62.9514H72.8471H72.7451Z" fill="var(--fill-0, #00AEFF)"/>
</svg>
