<svg preserveAspectRatio="none" width="100%" height="100%" overflow="visible" style="display: block;" viewBox="0 0 105 183" fill="none" xmlns="http://www.w3.org/2000/svg">
<path id="Vector" d="M104.944 74.6996C105.349 82.2328 103.529 89.311 100.293 96.0352C99.4842 97.7036 98.6248 99.4226 97.0576 100.535C95.2375 101.849 93.2659 102.304 91.1931 101.293C89.0697 100.282 88.6653 98.3609 88.817 96.288C88.9686 94.7712 89.272 93.2545 89.4236 91.7378C90.5359 81.8283 86.7442 74.2446 78.8069 68.4304C70.7686 62.4645 61.6686 59.1782 51.9619 57.3075C48.6758 56.6503 50.243 59.0771 50.4958 60.1894C53.2763 72.1717 56.2591 84.1034 59.0397 96.0858C62.4775 111.051 66.5725 125.915 68.9486 141.083C71.8303 159.081 59.1913 177.535 41.3452 181.681C30.7285 184.158 20.769 183.451 11.4668 176.929C-3.80104 166.261 -2.99215 146.594 8.98954 135.218C20.3646 124.449 33.6607 120.809 48.7769 126.421C51.4563 127.432 51.7597 126.623 51.2035 124.196C47.968 109.838 44.7324 95.4791 41.6485 81.1205C36.6941 57.8131 31.7902 34.5057 26.9874 11.1983C25.5213 4.17072 29.7679 -0.379532 36.9468 0.0249344C39.8285 0.176609 42.0024 1.54168 43.2157 4.12016C48.0691 14.8385 56.7647 21.3606 67.078 26.2142C75.7231 30.3094 84.267 34.4046 91.547 40.9772C98.6753 47.4487 102.416 55.4369 104.186 64.5879C104.843 67.9248 105.045 71.3122 104.894 74.6996H104.944Z" fill="var(--fill-0, #FF5E00)"/>
</svg>
