<svg width="325" height="343" viewBox="0 0 325 343" fill="none" xmlns="http://www.w3.org/2000/svg">
  <path d="M 178.50 2.50 Q 184.00 0.00 198.00 3.50 Q 212.00 7.00 228.50 15.50 Q 245.00 24.00 256.50 33.00 Q 268.00 42.00 280.00 55.50 Q 292.00 69.00 300.50 83.50 Q 309.00 98.00 315.00 115.50 Q 321.00 133.00 323.00 145.00 Q 325.00 157.00 324.50 178.00 Q 324.00 199.00 319.00 218.00 Q 314.00 237.00 307.50 250.00 Q 301.00 263.00 292.50 274.50 Q 284.00 286.00 269.50 299.00 Q 255.00 312.00 239.00 321.00 Q 223.00 330.00 207.00 335.00 Q 191.00 340.00 180.00 341.50 Q 169.00 343.00 149.00 342.00 Q 129.00 341.00 114.00 337.00 Q 99.00 333.00 87.50 327.50 Q 76.00 322.00 64.00 313.50 Q 52.00 305.00 42.50 295.00 Q 33.00 285.00 24.50 272.00 Q 16.00 259.00 11.00 247.00 Q 6.00 235.00 3.00 220.00 Q 0.00 205.00 0.50 189.00 Q 1.00 173.00 5.00 158.00 Q 9.00 143.00 16.00 130.00 Q 23.00 117.00 33.00 105.50 Q 43.00 94.00 55.50 85.00 Q 68.00 76.00 81.00 70.50 Q 94.00 65.00 107.50 62.50 Q 121.00 60.00 135.00 60.50 Q 149.00 61.00 166.00 66.00 Q 183.00 71.00 192.50 76.50 Q 202.00 82.00 212.00 91.00 Q 222.00 100.00 228.00 108.50 Q 234.00 117.00 238.50 128.00 Q 243.00 139.00 244.50 146.50 Q 246.00 154.00 245.50 170.00 Q 245.00 186.00 242.00 196.00 Q 239.00 206.00 231.50 218.50 Q 224.00 231.00 216.50 238.00 Q 209.00 245.00 201.50 249.50 Q 194.00 254.00 185.00 257.00 Q 176.00 260.00 166.50 261.00 Q 157.00 262.00 147.00 260.50 Q 137.00 259.00 128.50 255.50 Q 120.00 252.00 117.00 250.00 Q 114.00 248.00 105.00 238.00 Q 96.00 228.00 91.00 215.50 Q 86.00 203.00 85.50 193.50 Q 85.00 184.00 86.00 178.50 Q 87.00 173.00 89.00 168.00 Q 91.00 163.00 94.50 158.00 Q 98.00 153.00 105.00 147.50 Q 112.00 142.00 116.50 140.00 Q 121.00 138.00 130.50 137.00 Q 140.00 136.00 145.50 137.50 Q 151.00 139.00 157.50 144.50 Q 164.00 150.00 165.50 153.50 Q 167.00 157.00 167.50 160.00 Q 168.00 163.00 167.00 167.50 Q 166.00 172.00 162.00 176.50 Q 158.00 181.00 155.50 182.00 Q 153.00 183.00 147.50 183.00 Q 142.00 183.00 138.50 180.50 Q 135.00 178.00 133.00 178.00 Q 131.00 178.00 128.50 180.50 Q 126.00 183.00 125.50 187.00 Q 125.00 191.00 126.00 195.50 Q 127.00 200.00 129.50 204.50 Q 132.00 209.00 137.50 213.50 Q 143.00 218.00 147.50 219.50 Q 152.00 221.00 159.00 221.00 Q 166.00 221.00 169.50 220.00 Q 173.00 219.00 180.00 215.00 Q 187.00 211.00 192.00 205.50 Q 197.00 200.00 200.00 194.50 Q 203.00 189.00 205.00 180.00 Q 207.00 171.00 206.50 163.00 Q 206.00 155.00 204.00 148.50 Q 202.00 142.00 198.50 136.00 Q 195.00 130.00 190.50 125.00 Q 186.00 120.00 177.00 114.00 Q 168.00 108.00 154.50 104.00 Q 141.00 100.00 131.00 100.00 Q 121.00 100.00 109.50 103.00 Q 98.00 106.00 88.00 111.50 Q 78.00 117.00 68.50 126.00 Q 59.00 135.00 52.50 146.00 Q 46.00 157.00 43.50 165.00 Q 41.00 173.00 40.50 188.50 Q 40.00 204.00 41.50 211.50 Q 43.00 219.00 49.50 233.50 Q 56.00 248.00 67.00 261.00 Q 78.00 274.00 88.00 281.00 Q 98.00 288.00 111.50 293.50 Q 125.00 299.00 137.50 301.00 Q 150.00 303.00 167.50 301.50 Q 185.00 300.00 196.00 296.50 Q 207.00 293.00 216.50 288.00 Q 226.00 283.00 233.50 277.50 Q 241.00 272.00 253.00 258.50 Q 265.00 245.00 269.50 237.00 Q 274.00 229.00 277.50 219.50 Q 281.00 210.00 283.00 200.00 Q 285.00 190.00 285.00 174.00 Q 285.00 158.00 284.00 151.50 Q 283.00 145.00 277.50 128.50 Q 272.00 112.00 267.50 104.00 Q 263.00 96.00 257.00 88.00 Q 251.00 80.00 244.00 73.00 Q 237.00 66.00 227.50 59.00 Q 218.00 52.00 205.50 46.00 Q 193.00 40.00 186.00 38.50 Q 179.00 37.00 175.00 34.00 Q 171.00 31.00 169.50 28.00 Q 168.00 25.00 168.00 19.00 Q 168.00 13.00 170.50 9.00 Q 173.00 5.00 178.50 2.50 Z" fill="white"/>
</svg>
