<svg width="337" height="304" viewBox="0 0 337 304" fill="none" xmlns="http://www.w3.org/2000/svg">
  <path d="M 140.00 3.50 Q 159.00 0.00 170.50 0.00 Q 182.00 0.00 198.00 2.50 Q 214.00 5.00 227.00 9.50 Q 240.00 14.00 253.50 21.50 Q 267.00 29.00 273.50 34.00 Q 280.00 39.00 290.00 49.00 Q 300.00 59.00 305.00 65.50 Q 310.00 72.00 317.00 84.50 Q 324.00 97.00 329.00 112.50 Q 334.00 128.00 335.50 138.00 Q 337.00 148.00 336.00 168.00 Q 335.00 188.00 331.00 202.50 Q 327.00 217.00 321.50 228.50 Q 316.00 240.00 309.50 249.00 Q 303.00 258.00 291.00 269.00 Q 279.00 280.00 266.50 287.00 Q 254.00 294.00 241.00 298.00 Q 228.00 302.00 221.50 303.00 Q 215.00 304.00 201.00 304.00 Q 187.00 304.00 178.00 302.50 Q 169.00 301.00 158.50 297.50 Q 148.00 294.00 135.00 286.50 Q 122.00 279.00 112.00 269.50 Q 102.00 260.00 94.50 249.00 Q 87.00 238.00 82.50 227.00 Q 78.00 216.00 75.50 201.50 Q 73.00 187.00 73.50 177.00 Q 74.00 167.00 77.00 155.50 Q 80.00 144.00 85.00 134.50 Q 90.00 125.00 99.50 114.50 Q 109.00 104.00 120.00 97.00 Q 131.00 90.00 141.50 86.50 Q 152.00 83.00 163.00 82.00 Q 174.00 81.00 186.00 83.00 Q 198.00 85.00 211.50 92.00 Q 225.00 99.00 231.50 105.50 Q 238.00 112.00 243.00 120.50 Q 248.00 129.00 250.50 138.50 Q 253.00 148.00 253.00 156.50 Q 253.00 165.00 250.50 175.00 Q 248.00 185.00 245.00 191.00 Q 242.00 197.00 233.50 206.00 Q 225.00 215.00 215.50 219.00 Q 206.00 223.00 195.00 223.00 Q 184.00 223.00 177.50 221.00 Q 171.00 219.00 167.00 216.50 Q 163.00 214.00 158.00 208.00 Q 153.00 202.00 151.50 198.00 Q 150.00 194.00 150.00 186.50 Q 150.00 179.00 151.50 175.50 Q 153.00 172.00 156.00 169.00 Q 159.00 166.00 162.50 164.50 Q 166.00 163.00 172.00 163.50 Q 178.00 164.00 182.50 167.50 Q 187.00 171.00 188.50 176.50 Q 190.00 182.00 193.50 183.00 Q 197.00 184.00 199.50 183.00 Q 202.00 182.00 205.00 178.50 Q 208.00 175.00 210.00 170.50 Q 212.00 166.00 212.50 161.00 Q 213.00 156.00 210.50 148.00 Q 208.00 140.00 201.00 133.50 Q 194.00 127.00 187.00 124.50 Q 180.00 122.00 170.50 122.00 Q 161.00 122.00 154.50 124.00 Q 148.00 126.00 141.00 130.50 Q 134.00 135.00 129.00 140.50 Q 124.00 146.00 120.50 152.50 Q 117.00 159.00 115.00 166.50 Q 113.00 174.00 113.00 182.00 Q 113.00 190.00 116.50 202.50 Q 120.00 215.00 126.50 225.00 Q 133.00 235.00 139.50 241.00 Q 146.00 247.00 156.00 252.50 Q 166.00 258.00 174.00 260.50 Q 182.00 263.00 201.50 263.00 Q 221.00 263.00 229.50 260.50 Q 238.00 258.00 250.00 250.50 Q 262.00 243.00 271.00 232.50 Q 280.00 222.00 283.50 215.50 Q 287.00 209.00 290.00 200.50 Q 293.00 192.00 295.00 179.50 Q 297.00 167.00 295.50 150.50 Q 294.00 134.00 290.50 123.50 Q 287.00 113.00 278.50 99.50 Q 270.00 86.00 257.50 74.50 Q 245.00 63.00 232.00 56.00 Q 219.00 49.00 209.50 46.00 Q 200.00 43.00 189.50 41.50 Q 179.00 40.00 170.00 40.00 Q 161.00 40.00 147.00 42.50 Q 133.00 45.00 124.00 48.50 Q 115.00 52.00 106.50 57.00 Q 98.00 62.00 90.50 68.00 Q 83.00 74.00 73.50 85.00 Q 64.00 96.00 55.50 112.00 Q 47.00 128.00 44.50 136.00 Q 42.00 144.00 40.00 158.50 Q 38.00 173.00 38.50 184.50 Q 39.00 196.00 41.50 208.00 Q 44.00 220.00 47.00 228.00 Q 50.00 236.00 54.50 243.00 Q 59.00 250.00 61.00 255.50 Q 63.00 261.00 62.00 266.00 Q 61.00 271.00 58.50 274.00 Q 56.00 277.00 53.00 278.50 Q 50.00 280.00 45.50 280.50 Q 41.00 281.00 37.00 279.50 Q 33.00 278.00 30.00 275.00 Q 27.00 272.00 20.00 258.50 Q 13.00 245.00 8.50 231.00 Q 4.00 217.00 2.00 204.50 Q 0.00 192.00 0.00 176.00 Q 0.00 160.00 1.50 149.50 Q 3.00 139.00 9.00 120.50 Q 15.00 102.00 23.50 87.00 Q 32.00 72.00 46.00 56.50 Q 60.00 41.00 75.00 30.50 Q 90.00 20.00 105.50 13.50 Q 121.00 7.00 140.00 3.50 Z" fill="white"/>
</svg>
