<svg width="105" height="183" viewBox="0 0 105 183" xmlns="http://www.w3.org/2000/svg">
  <path d="M 31.00 1.50 Q 34.00 0.00 37.50 0.50 Q 41.00 1.00 44.00 6.50 Q 47.00 12.00 51.00 16.00 Q 55.00 20.00 68.00 26.50 Q 81.00 33.00 88.00 38.50 Q 95.00 44.00 99.00 51.50 Q 103.00 59.00 104.00 69.50 Q 105.00 80.00 102.00 89.50 Q 99.00 99.00 96.50 100.50 Q 94.00 102.00 92.00 101.50 Q 90.00 101.00 90.00 92.50 Q 90.00 84.00 87.50 78.50 Q 85.00 73.00 80.00 69.00 Q 75.00 65.00 70.00 62.50 Q 65.00 60.00 57.50 58.50 Q 50.00 57.00 58.50 93.00 Q 67.00 129.00 68.00 140.50 Q 69.00 152.00 67.00 158.00 Q 65.00 164.00 59.00 170.50 Q 53.00 177.00 47.00 179.50 Q 41.00 182.00 34.00 182.50 Q 27.00 183.00 20.50 181.00 Q 14.00 179.00 9.00 174.50 Q 4.00 170.00 2.00 164.50 Q 0.00 159.00 0.00 156.00 Q 0.00 153.00 3.00 145.50 Q 6.00 138.00 13.00 132.50 Q 20.00 127.00 25.00 125.50 Q 30.00 124.00 35.00 124.00 Q 40.00 124.00 46.00 125.50 Q 52.00 127.00 39.50 69.50 Q 27.00 12.00 27.50 7.50 Q 28.00 3.00 31.00 1.50 Z" fill="#FF5E00" fill-rule="evenodd"/>
</svg>
