<svg width="182" height="182" viewBox="0 0 182 182" xmlns="http://www.w3.org/2000/svg">
  <path d="M 116.50 11.00 Q 169.00 0.00 173.50 0.50 Q 178.00 1.00 180.00 4.00 Q 182.00 7.00 181.50 68.50 Q 181.00 130.00 180.00 134.00 Q 179.00 138.00 176.50 142.50 Q 174.00 147.00 171.00 150.00 Q 168.00 153.00 163.50 155.50 Q 159.00 158.00 155.00 159.00 Q 151.00 160.00 145.00 160.00 Q 139.00 160.00 131.50 156.50 Q 124.00 153.00 120.00 147.00 Q 116.00 141.00 116.50 133.50 Q 117.00 126.00 119.00 123.00 Q 121.00 120.00 126.50 115.50 Q 132.00 111.00 139.00 109.00 Q 146.00 107.00 153.50 107.50 Q 161.00 108.00 163.50 109.50 Q 166.00 111.00 167.50 110.50 Q 169.00 110.00 168.50 85.00 Q 168.00 60.00 166.00 59.50 Q 164.00 59.00 116.50 69.50 Q 69.00 80.00 68.00 81.00 Q 67.00 82.00 67.00 118.00 Q 67.00 154.00 65.00 159.00 Q 63.00 164.00 57.00 170.00 Q 51.00 176.00 45.50 178.50 Q 40.00 181.00 32.50 181.50 Q 25.00 182.00 17.00 178.50 Q 9.00 175.00 5.50 171.00 Q 2.00 167.00 1.00 164.00 Q 0.00 161.00 0.00 157.00 Q 0.00 153.00 2.50 147.50 Q 5.00 142.00 11.00 137.00 Q 17.00 132.00 22.50 130.00 Q 28.00 128.00 33.50 127.50 Q 39.00 127.00 42.50 127.50 Q 46.00 128.00 48.50 129.50 Q 51.00 131.00 52.50 130.50 Q 54.00 130.00 54.00 90.00 Q 54.00 50.00 55.00 38.50 Q 56.00 27.00 60.00 24.50 Q 64.00 22.00 116.50 11.00 Z M 166.00 31.50 Q 163.00 31.00 118.00 41.00 Q 73.00 51.00 71.00 52.00 Q 69.00 53.00 68.50 57.00 Q 68.00 61.00 68.50 62.00 Q 69.00 63.00 71.00 63.00 Q 73.00 63.00 120.00 53.00 Q 167.00 43.00 168.00 41.50 Q 169.00 40.00 169.00 36.00 Q 169.00 32.00 166.00 31.50 Z" fill="#CB59FF" fill-rule="evenodd"/>
</svg>
