<svg width="73" height="168" viewBox="0 0 73 168" xmlns="http://www.w3.org/2000/svg">
  <path d="M 59.50 1.50 Q 62.00 0.00 65.50 0.00 Q 69.00 0.00 71.00 2.00 Q 73.00 4.00 72.50 71.50 Q 72.00 139.00 69.50 145.00 Q 67.00 151.00 60.50 157.00 Q 54.00 163.00 47.00 165.50 Q 40.00 168.00 32.00 167.50 Q 24.00 167.00 19.00 165.00 Q 14.00 163.00 10.00 159.50 Q 6.00 156.00 3.50 151.50 Q 1.00 147.00 0.50 140.50 Q 0.00 134.00 3.50 127.00 Q 7.00 120.00 14.00 115.50 Q 21.00 111.00 24.50 110.00 Q 28.00 109.00 36.00 109.00 Q 44.00 109.00 48.00 111.00 Q 52.00 113.00 54.00 113.00 Q 56.00 113.00 56.00 59.50 Q 56.00 6.00 56.50 4.50 Q 57.00 3.00 59.50 1.50 Z" fill="#00AEFF" fill-rule="evenodd"/>
</svg>
