<svg width="89" height="95" viewBox="0 0 89 95" fill="none" xmlns="http://www.w3.org/2000/svg">
  <path d="M53.5206 1.18041C55.1339 -0.929097 58.4906 -0.0565937 58.8724 2.57152L63.4135 33.8267C63.5184 34.5482 63.8823 35.2068 64.4374 35.6794L87.8224 55.5922C89.7312 57.2175 88.9226 60.3283 86.464 60.8184L56.3422 66.8229C55.6272 66.9655 54.9886 67.3635 54.5457 67.9426L35.3592 93.0301C33.7459 95.1396 30.3892 94.2671 30.0074 91.639L25.4662 60.3838C25.3614 59.6624 24.9974 59.0038 24.4423 58.5311L1.05733 38.6183C-0.851456 36.993 -0.0428667 33.8822 2.4158 33.3921L32.5376 27.3876C33.2526 27.2451 33.8912 26.8471 34.3341 26.268L53.5206 1.18041Z" fill="#FFCD42"/>
</svg>
